<mxfile host="app.diagrams.net" modified="2021-05-03T18:12:57.257Z" agent="5.0 (Windows NT 10.0; Win64; x64) AppleWebKit/537.36 (KHTML, like Gecko) Chrome/90.0.4430.72 Safari/537.36" etag="mGOu3muK9O4MXeiMC2jX" version="14.6.9" type="github">
  <diagram id="WIb8dC19WEZNupY6U4wO" name="Page-1">
    <mxGraphModel dx="1209" dy="749" grid="1" gridSize="10" guides="1" tooltips="1" connect="1" arrows="1" fold="1" page="1" pageScale="1" pageWidth="827" pageHeight="1169" math="0" shadow="0">
      <root>
        <mxCell id="0" />
        <mxCell id="1" parent="0" />
        <mxCell id="kRK_aA-54_VkBkXTAaHv-73" value="" style="whiteSpace=wrap;html=1;shape=mxgraph.basic.pentagon;strokeColor=#000000;fillColor=#FFFFFF;gradientColor=none;" parent="1" vertex="1">
          <mxGeometry x="850" y="412.5" width="130" height="115" as="geometry" />
        </mxCell>
        <mxCell id="kRK_aA-54_VkBkXTAaHv-6" value="" style="shape=table;html=1;whiteSpace=wrap;startSize=0;container=1;collapsible=0;childLayout=tableLayout;" parent="1" vertex="1">
          <mxGeometry x="90" y="390" width="190" height="160" as="geometry" />
        </mxCell>
        <mxCell id="kRK_aA-54_VkBkXTAaHv-7" value="" style="shape=partialRectangle;html=1;whiteSpace=wrap;collapsible=0;dropTarget=0;pointerEvents=0;fillColor=none;top=0;left=0;bottom=0;right=0;points=[[0,0.5],[1,0.5]];portConstraint=eastwest;" parent="kRK_aA-54_VkBkXTAaHv-6" vertex="1">
          <mxGeometry width="190" height="32" as="geometry" />
        </mxCell>
        <mxCell id="kRK_aA-54_VkBkXTAaHv-8" value="试题" style="shape=partialRectangle;html=1;whiteSpace=wrap;connectable=0;overflow=hidden;fillColor=none;top=0;left=0;bottom=0;right=0;" parent="kRK_aA-54_VkBkXTAaHv-7" vertex="1">
          <mxGeometry width="70" height="32" as="geometry" />
        </mxCell>
        <mxCell id="kRK_aA-54_VkBkXTAaHv-9" value="知识概念" style="shape=partialRectangle;html=1;whiteSpace=wrap;connectable=0;overflow=hidden;fillColor=none;top=0;left=0;bottom=0;right=0;" parent="kRK_aA-54_VkBkXTAaHv-7" vertex="1">
          <mxGeometry x="70" width="120" height="32" as="geometry" />
        </mxCell>
        <mxCell id="kRK_aA-54_VkBkXTAaHv-10" value="" style="shape=partialRectangle;html=1;whiteSpace=wrap;collapsible=0;dropTarget=0;pointerEvents=0;fillColor=none;top=0;left=0;bottom=0;right=0;points=[[0,0.5],[1,0.5]];portConstraint=eastwest;" parent="kRK_aA-54_VkBkXTAaHv-6" vertex="1">
          <mxGeometry y="32" width="190" height="32" as="geometry" />
        </mxCell>
        <mxCell id="kRK_aA-54_VkBkXTAaHv-11" value="&lt;span style=&quot;font-size: 10px&quot;&gt;e&lt;/span&gt;&lt;sub&gt;&lt;font style=&quot;font-size: 10px&quot;&gt;1&lt;/font&gt;&lt;/sub&gt;" style="shape=partialRectangle;html=1;whiteSpace=wrap;connectable=0;overflow=hidden;fillColor=none;top=0;left=0;bottom=0;right=0;" parent="kRK_aA-54_VkBkXTAaHv-10" vertex="1">
          <mxGeometry width="70" height="32" as="geometry" />
        </mxCell>
        <mxCell id="kRK_aA-54_VkBkXTAaHv-12" value="三角函数" style="shape=partialRectangle;html=1;whiteSpace=wrap;connectable=0;overflow=hidden;fillColor=none;top=0;left=0;bottom=0;right=0;" parent="kRK_aA-54_VkBkXTAaHv-10" vertex="1">
          <mxGeometry x="70" width="120" height="32" as="geometry" />
        </mxCell>
        <mxCell id="kRK_aA-54_VkBkXTAaHv-13" value="" style="shape=partialRectangle;html=1;whiteSpace=wrap;collapsible=0;dropTarget=0;pointerEvents=0;fillColor=none;top=0;left=0;bottom=0;right=0;points=[[0,0.5],[1,0.5]];portConstraint=eastwest;" parent="kRK_aA-54_VkBkXTAaHv-6" vertex="1">
          <mxGeometry y="64" width="190" height="32" as="geometry" />
        </mxCell>
        <mxCell id="kRK_aA-54_VkBkXTAaHv-14" value="e&lt;sub&gt;2&lt;/sub&gt;" style="shape=partialRectangle;html=1;whiteSpace=wrap;connectable=0;overflow=hidden;fillColor=none;top=0;left=0;bottom=0;right=0;" parent="kRK_aA-54_VkBkXTAaHv-13" vertex="1">
          <mxGeometry width="70" height="32" as="geometry" />
        </mxCell>
        <mxCell id="kRK_aA-54_VkBkXTAaHv-15" value="统计学" style="shape=partialRectangle;html=1;whiteSpace=wrap;connectable=0;overflow=hidden;fillColor=none;top=0;left=0;bottom=0;right=0;" parent="kRK_aA-54_VkBkXTAaHv-13" vertex="1">
          <mxGeometry x="70" width="120" height="32" as="geometry" />
        </mxCell>
        <mxCell id="kRK_aA-54_VkBkXTAaHv-16" value="" style="shape=partialRectangle;html=1;whiteSpace=wrap;collapsible=0;dropTarget=0;pointerEvents=0;fillColor=none;top=0;left=0;bottom=0;right=0;points=[[0,0.5],[1,0.5]];portConstraint=eastwest;" parent="kRK_aA-54_VkBkXTAaHv-6" vertex="1">
          <mxGeometry y="96" width="190" height="32" as="geometry" />
        </mxCell>
        <mxCell id="kRK_aA-54_VkBkXTAaHv-17" value="e&lt;sub&gt;3&lt;/sub&gt;" style="shape=partialRectangle;html=1;whiteSpace=wrap;connectable=0;overflow=hidden;fillColor=none;top=0;left=0;bottom=0;right=0;" parent="kRK_aA-54_VkBkXTAaHv-16" vertex="1">
          <mxGeometry width="70" height="32" as="geometry" />
        </mxCell>
        <mxCell id="kRK_aA-54_VkBkXTAaHv-18" value="坐标系、方程式" style="shape=partialRectangle;html=1;whiteSpace=wrap;connectable=0;overflow=hidden;fillColor=none;top=0;left=0;bottom=0;right=0;" parent="kRK_aA-54_VkBkXTAaHv-16" vertex="1">
          <mxGeometry x="70" width="120" height="32" as="geometry" />
        </mxCell>
        <mxCell id="kRK_aA-54_VkBkXTAaHv-19" value="" style="shape=partialRectangle;html=1;whiteSpace=wrap;collapsible=0;dropTarget=0;pointerEvents=0;fillColor=none;top=0;left=0;bottom=0;right=0;points=[[0,0.5],[1,0.5]];portConstraint=eastwest;" parent="kRK_aA-54_VkBkXTAaHv-6" vertex="1">
          <mxGeometry y="128" width="190" height="32" as="geometry" />
        </mxCell>
        <mxCell id="kRK_aA-54_VkBkXTAaHv-20" value="e&lt;sub&gt;4&lt;/sub&gt;" style="shape=partialRectangle;html=1;whiteSpace=wrap;connectable=0;overflow=hidden;fillColor=none;top=0;left=0;bottom=0;right=0;" parent="kRK_aA-54_VkBkXTAaHv-19" vertex="1">
          <mxGeometry width="70" height="32" as="geometry" />
        </mxCell>
        <mxCell id="kRK_aA-54_VkBkXTAaHv-21" value="绝对值、方程式" style="shape=partialRectangle;html=1;whiteSpace=wrap;connectable=0;overflow=hidden;fillColor=none;top=0;left=0;bottom=0;right=0;" parent="kRK_aA-54_VkBkXTAaHv-19" vertex="1">
          <mxGeometry x="70" width="120" height="32" as="geometry" />
        </mxCell>
        <mxCell id="kRK_aA-54_VkBkXTAaHv-45" value="" style="shape=flexArrow;endArrow=classic;html=1;" parent="1" edge="1">
          <mxGeometry width="50" height="50" relative="1" as="geometry">
            <mxPoint x="300" y="469.5" as="sourcePoint" />
            <mxPoint x="400" y="470" as="targetPoint" />
          </mxGeometry>
        </mxCell>
        <mxCell id="kRK_aA-54_VkBkXTAaHv-46" value="&lt;font style=&quot;font-size: 14px&quot;&gt;做题练习&lt;/font&gt;" style="text;html=1;strokeColor=none;fillColor=none;align=center;verticalAlign=middle;whiteSpace=wrap;rounded=0;" parent="1" vertex="1">
          <mxGeometry x="310" y="490" width="60" height="20" as="geometry" />
        </mxCell>
        <mxCell id="kRK_aA-54_VkBkXTAaHv-47" value="" style="shape=table;html=1;whiteSpace=wrap;startSize=0;container=1;collapsible=0;childLayout=tableLayout;" parent="1" vertex="1">
          <mxGeometry x="420" y="430" width="280" height="70" as="geometry" />
        </mxCell>
        <mxCell id="kRK_aA-54_VkBkXTAaHv-48" value="" style="shape=partialRectangle;html=1;whiteSpace=wrap;collapsible=0;dropTarget=0;pointerEvents=0;fillColor=none;top=0;left=0;bottom=0;right=0;points=[[0,0.5],[1,0.5]];portConstraint=eastwest;" parent="kRK_aA-54_VkBkXTAaHv-47" vertex="1">
          <mxGeometry width="280" height="35" as="geometry" />
        </mxCell>
        <mxCell id="kRK_aA-54_VkBkXTAaHv-49" value="试题" style="shape=partialRectangle;html=1;whiteSpace=wrap;connectable=0;overflow=hidden;fillColor=none;top=0;left=0;bottom=0;right=0;" parent="kRK_aA-54_VkBkXTAaHv-48" vertex="1">
          <mxGeometry width="80" height="35" as="geometry" />
        </mxCell>
        <mxCell id="kRK_aA-54_VkBkXTAaHv-50" value="&lt;span style=&quot;font-size: 10px&quot;&gt;e&lt;/span&gt;&lt;sub&gt;1&lt;/sub&gt;" style="shape=partialRectangle;html=1;whiteSpace=wrap;connectable=0;overflow=hidden;fillColor=none;top=0;left=0;bottom=0;right=0;" parent="kRK_aA-54_VkBkXTAaHv-48" vertex="1">
          <mxGeometry x="80" width="50" height="35" as="geometry" />
        </mxCell>
        <mxCell id="kRK_aA-54_VkBkXTAaHv-51" value="&lt;span style=&quot;font-size: 10px&quot;&gt;e&lt;sub&gt;2&lt;/sub&gt;&lt;/span&gt;" style="shape=partialRectangle;html=1;whiteSpace=wrap;connectable=0;overflow=hidden;fillColor=none;top=0;left=0;bottom=0;right=0;" parent="kRK_aA-54_VkBkXTAaHv-48" vertex="1">
          <mxGeometry x="130" width="50" height="35" as="geometry" />
        </mxCell>
        <mxCell id="kRK_aA-54_VkBkXTAaHv-52" value="&lt;span style=&quot;font-size: 10px&quot;&gt;e&lt;sub&gt;3&lt;/sub&gt;&lt;/span&gt;" style="shape=partialRectangle;html=1;whiteSpace=wrap;connectable=0;overflow=hidden;fillColor=none;top=0;left=0;bottom=0;right=0;" parent="kRK_aA-54_VkBkXTAaHv-48" vertex="1">
          <mxGeometry x="180" width="50" height="35" as="geometry" />
        </mxCell>
        <mxCell id="kRK_aA-54_VkBkXTAaHv-53" value="&lt;span style=&quot;font-size: 10px&quot;&gt;e&lt;/span&gt;&lt;sub&gt;4&lt;/sub&gt;" style="shape=partialRectangle;html=1;whiteSpace=wrap;connectable=0;overflow=hidden;fillColor=none;top=0;left=0;bottom=0;right=0;" parent="kRK_aA-54_VkBkXTAaHv-48" vertex="1">
          <mxGeometry x="230" width="50" height="35" as="geometry" />
        </mxCell>
        <mxCell id="kRK_aA-54_VkBkXTAaHv-54" value="" style="shape=partialRectangle;html=1;whiteSpace=wrap;collapsible=0;dropTarget=0;pointerEvents=0;fillColor=none;top=0;left=0;bottom=0;right=0;points=[[0,0.5],[1,0.5]];portConstraint=eastwest;" parent="kRK_aA-54_VkBkXTAaHv-47" vertex="1">
          <mxGeometry y="35" width="280" height="35" as="geometry" />
        </mxCell>
        <mxCell id="kRK_aA-54_VkBkXTAaHv-55" value="练习情况" style="shape=partialRectangle;html=1;whiteSpace=wrap;connectable=0;overflow=hidden;fillColor=none;top=0;left=0;bottom=0;right=0;" parent="kRK_aA-54_VkBkXTAaHv-54" vertex="1">
          <mxGeometry width="80" height="35" as="geometry" />
        </mxCell>
        <mxCell id="kRK_aA-54_VkBkXTAaHv-56" value="" style="shape=partialRectangle;html=1;whiteSpace=wrap;connectable=0;overflow=hidden;fillColor=none;top=0;left=0;bottom=0;right=0;" parent="kRK_aA-54_VkBkXTAaHv-54" vertex="1">
          <mxGeometry x="80" width="50" height="35" as="geometry" />
        </mxCell>
        <mxCell id="kRK_aA-54_VkBkXTAaHv-57" value="" style="shape=partialRectangle;html=1;whiteSpace=wrap;connectable=0;overflow=hidden;fillColor=none;top=0;left=0;bottom=0;right=0;" parent="kRK_aA-54_VkBkXTAaHv-54" vertex="1">
          <mxGeometry x="130" width="50" height="35" as="geometry" />
        </mxCell>
        <mxCell id="kRK_aA-54_VkBkXTAaHv-58" value="" style="shape=partialRectangle;html=1;whiteSpace=wrap;connectable=0;overflow=hidden;fillColor=none;top=0;left=0;bottom=0;right=0;" parent="kRK_aA-54_VkBkXTAaHv-54" vertex="1">
          <mxGeometry x="180" width="50" height="35" as="geometry" />
        </mxCell>
        <mxCell id="kRK_aA-54_VkBkXTAaHv-59" value="" style="shape=partialRectangle;html=1;whiteSpace=wrap;connectable=0;overflow=hidden;fillColor=none;top=0;left=0;bottom=0;right=0;" parent="kRK_aA-54_VkBkXTAaHv-54" vertex="1">
          <mxGeometry x="230" width="50" height="35" as="geometry" />
        </mxCell>
        <mxCell id="kRK_aA-54_VkBkXTAaHv-62" value="" style="shape=mxgraph.signs.healthcare.mental_health;html=1;pointerEvents=1;fillColor=#000000;strokeColor=none;verticalLabelPosition=bottom;verticalAlign=top;align=center;" parent="1" vertex="1">
          <mxGeometry x="314" y="380" width="52" height="60" as="geometry" />
        </mxCell>
        <mxCell id="kRK_aA-54_VkBkXTAaHv-65" value="" style="html=1;verticalLabelPosition=bottom;labelBackgroundColor=#ffffff;verticalAlign=top;shadow=0;dashed=0;strokeWidth=2;shape=mxgraph.ios7.misc.select;fillColor=#FFFFFF;" parent="1" vertex="1">
          <mxGeometry x="510" y="470" width="30" height="30" as="geometry" />
        </mxCell>
        <mxCell id="kRK_aA-54_VkBkXTAaHv-66" value="" style="html=1;verticalLabelPosition=bottom;labelBackgroundColor=#ffffff;verticalAlign=top;shadow=0;dashed=0;strokeWidth=2;shape=mxgraph.ios7.misc.remove;" parent="1" vertex="1">
          <mxGeometry x="610" y="470" width="30" height="30" as="geometry" />
        </mxCell>
        <mxCell id="kRK_aA-54_VkBkXTAaHv-67" value="" style="html=1;verticalLabelPosition=bottom;labelBackgroundColor=#ffffff;verticalAlign=top;shadow=0;dashed=0;strokeWidth=2;shape=mxgraph.ios7.misc.select;fillColor=#FFFFFF;" parent="1" vertex="1">
          <mxGeometry x="560" y="470" width="30" height="30" as="geometry" />
        </mxCell>
        <mxCell id="kRK_aA-54_VkBkXTAaHv-68" value="" style="html=1;verticalLabelPosition=bottom;labelBackgroundColor=#ffffff;verticalAlign=top;shadow=0;dashed=0;strokeWidth=2;shape=mxgraph.ios7.misc.select;fillColor=#FFFFFF;" parent="1" vertex="1">
          <mxGeometry x="660" y="470" width="30" height="30" as="geometry" />
        </mxCell>
        <mxCell id="kRK_aA-54_VkBkXTAaHv-69" value="&lt;font style=&quot;font-size: 16px&quot;&gt;&lt;b&gt;练习情况日志&lt;br&gt;&lt;/b&gt;&lt;/font&gt;" style="text;html=1;strokeColor=none;fillColor=none;align=center;verticalAlign=middle;whiteSpace=wrap;rounded=0;" parent="1" vertex="1">
          <mxGeometry x="510" y="520" width="100" height="20" as="geometry" />
        </mxCell>
        <mxCell id="kRK_aA-54_VkBkXTAaHv-70" value="" style="shape=flexArrow;endArrow=classic;html=1;" parent="1" edge="1">
          <mxGeometry width="50" height="50" relative="1" as="geometry">
            <mxPoint x="720" y="470" as="sourcePoint" />
            <mxPoint x="820" y="470.5" as="targetPoint" />
          </mxGeometry>
        </mxCell>
        <mxCell id="kRK_aA-54_VkBkXTAaHv-71" value="&lt;font style=&quot;font-size: 14px&quot;&gt;认知诊断&lt;/font&gt;" style="text;html=1;strokeColor=none;fillColor=none;align=center;verticalAlign=middle;whiteSpace=wrap;rounded=0;" parent="1" vertex="1">
          <mxGeometry x="730" y="490" width="60" height="20" as="geometry" />
        </mxCell>
        <mxCell id="kRK_aA-54_VkBkXTAaHv-74" value="&lt;span style=&quot;color: rgb(0, 0, 0); font-family: helvetica; font-size: 12px; font-style: normal; font-weight: 400; letter-spacing: normal; text-align: center; text-indent: 0px; text-transform: none; word-spacing: 0px; background-color: rgb(248, 249, 250); display: inline; float: none;&quot;&gt;三角函数&lt;/span&gt;" style="text;whiteSpace=wrap;html=1;" parent="1" vertex="1">
          <mxGeometry x="890" y="390" width="50" height="20" as="geometry" />
        </mxCell>
        <mxCell id="kRK_aA-54_VkBkXTAaHv-75" value="&lt;span style=&quot;color: rgb(0, 0, 0); font-family: helvetica; font-size: 12px; font-style: normal; font-weight: 400; letter-spacing: normal; text-align: center; text-indent: 0px; text-transform: none; word-spacing: 0px; background-color: rgb(248, 249, 250); display: inline; float: none;&quot;&gt;统计学&lt;/span&gt;" style="text;whiteSpace=wrap;html=1;" parent="1" vertex="1">
          <mxGeometry x="980" y="440" width="60" height="30" as="geometry" />
        </mxCell>
        <mxCell id="kRK_aA-54_VkBkXTAaHv-76" value="&lt;span style=&quot;color: rgb(0, 0, 0); font-family: helvetica; font-size: 12px; font-style: normal; font-weight: 400; letter-spacing: normal; text-align: center; text-indent: 0px; text-transform: none; word-spacing: 0px; background-color: rgb(248, 249, 250); display: inline; float: none;&quot;&gt;方程式&lt;/span&gt;" style="text;whiteSpace=wrap;html=1;" parent="1" vertex="1">
          <mxGeometry x="950" y="527.5" width="60" height="30" as="geometry" />
        </mxCell>
        <mxCell id="kRK_aA-54_VkBkXTAaHv-77" value="&lt;span style=&quot;color: rgb(0, 0, 0); font-family: helvetica; font-size: 12px; font-style: normal; font-weight: 400; letter-spacing: normal; text-align: center; text-indent: 0px; text-transform: none; word-spacing: 0px; background-color: rgb(248, 249, 250); display: inline; float: none;&quot;&gt;绝对值&lt;/span&gt;" style="text;whiteSpace=wrap;html=1;" parent="1" vertex="1">
          <mxGeometry x="850" y="527.5" width="60" height="30" as="geometry" />
        </mxCell>
        <mxCell id="kRK_aA-54_VkBkXTAaHv-78" value="&lt;span style=&quot;color: rgb(0, 0, 0); font-family: helvetica; font-size: 12px; font-style: normal; font-weight: 400; letter-spacing: normal; text-align: center; text-indent: 0px; text-transform: none; word-spacing: 0px; background-color: rgb(248, 249, 250); display: inline; float: none;&quot;&gt;坐标系&lt;/span&gt;" style="text;whiteSpace=wrap;html=1;" parent="1" vertex="1">
          <mxGeometry x="810" y="430" width="60" height="30" as="geometry" />
        </mxCell>
        <mxCell id="kRK_aA-54_VkBkXTAaHv-80" value="" style="whiteSpace=wrap;html=1;shape=mxgraph.basic.pentagon;strokeColor=#000000;fillColor=#FFFFFF;gradientColor=none;" parent="1" vertex="1">
          <mxGeometry x="880" y="440" width="70" height="65" as="geometry" />
        </mxCell>
        <mxCell id="kRK_aA-54_VkBkXTAaHv-81" value="0" style="text;html=1;strokeColor=none;fillColor=none;align=center;verticalAlign=middle;whiteSpace=wrap;rounded=0;" parent="1" vertex="1">
          <mxGeometry x="895" y="460" width="20" height="20" as="geometry" />
        </mxCell>
        <mxCell id="kRK_aA-54_VkBkXTAaHv-83" value="" style="shape=waypoint;sketch=0;size=6;pointerEvents=1;points=[];fillColor=none;resizable=0;rotatable=0;perimeter=centerPerimeter;snapToPoint=1;strokeColor=#000000;" parent="1" vertex="1">
          <mxGeometry x="895" y="452.5" width="40" height="40" as="geometry" />
        </mxCell>
        <mxCell id="kRK_aA-54_VkBkXTAaHv-84" value="0.5" style="text;html=1;strokeColor=none;fillColor=none;align=center;verticalAlign=middle;whiteSpace=wrap;rounded=0;" parent="1" vertex="1">
          <mxGeometry x="870" y="475" width="20" height="20" as="geometry" />
        </mxCell>
        <mxCell id="kRK_aA-54_VkBkXTAaHv-85" value="1" style="text;html=1;strokeColor=none;fillColor=none;align=center;verticalAlign=middle;whiteSpace=wrap;rounded=0;" parent="1" vertex="1">
          <mxGeometry x="840" y="485" width="20" height="20" as="geometry" />
        </mxCell>
        <mxCell id="kRK_aA-54_VkBkXTAaHv-92" style="rounded=0;orthogonalLoop=1;jettySize=auto;html=1;endArrow=none;endFill=0;strokeColor=#3399FF;strokeWidth=2;" parent="1" edge="1">
          <mxGeometry relative="1" as="geometry">
            <mxPoint x="930" y="430" as="targetPoint" />
            <mxPoint x="930" y="520" as="sourcePoint" />
            <Array as="points">
              <mxPoint x="960" y="470" />
            </Array>
          </mxGeometry>
        </mxCell>
        <mxCell id="kRK_aA-54_VkBkXTAaHv-90" style="edgeStyle=none;rounded=0;orthogonalLoop=1;jettySize=auto;html=1;exitX=1;exitY=1;exitDx=0;exitDy=0;" parent="1" edge="1">
          <mxGeometry relative="1" as="geometry">
            <mxPoint x="580" y="270" as="sourcePoint" />
            <mxPoint x="580" y="270" as="targetPoint" />
          </mxGeometry>
        </mxCell>
        <mxCell id="kRK_aA-54_VkBkXTAaHv-91" style="edgeStyle=none;rounded=0;orthogonalLoop=1;jettySize=auto;html=1;endArrow=none;endFill=0;strokeColor=#3399FF;strokeWidth=2;" parent="1" edge="1">
          <mxGeometry relative="1" as="geometry">
            <mxPoint x="930" y="520" as="sourcePoint" />
            <mxPoint x="930" y="430" as="targetPoint" />
            <Array as="points">
              <mxPoint x="880" y="510" />
              <mxPoint x="880" y="460" />
            </Array>
          </mxGeometry>
        </mxCell>
        <mxCell id="kRK_aA-54_VkBkXTAaHv-93" value="&lt;span style=&quot;font-size: 16px&quot;&gt;&lt;b&gt;状态诊断报告&lt;/b&gt;&lt;br&gt;&lt;/span&gt;" style="text;html=1;strokeColor=none;fillColor=none;align=center;verticalAlign=middle;whiteSpace=wrap;rounded=0;" parent="1" vertex="1">
          <mxGeometry x="865" y="557.5" width="100" height="20" as="geometry" />
        </mxCell>
        <mxCell id="kRK_aA-54_VkBkXTAaHv-94" value="&lt;font style=&quot;font-size: 20px&quot;&gt;[&quot;male&quot;, &quot;female&quot;]&lt;br&gt;&lt;br&gt;[&quot;Europe&quot;, &quot;America&quot;, &quot;Asia&quot;]&lt;br&gt;&lt;br&gt;[&quot;English&quot;, &quot;Chinese&quot;, &quot;Japanese&quot;, &quot;Spanish&quot;]&lt;/font&gt;" style="text;whiteSpace=wrap;html=1;fillColor=#f5f5f5;strokeColor=#666666;fontColor=#333333;" parent="1" vertex="1">
          <mxGeometry x="230" y="800" width="430" height="140" as="geometry" />
        </mxCell>
        <mxCell id="xwYrb8Y9w_a-tpGAEw4C-5" value="数据集划分" style="strokeWidth=2;html=1;shape=mxgraph.flowchart.delay;whiteSpace=wrap;fillColor=#dae8fc;strokeColor=#6c8ebf;" parent="1" vertex="1">
          <mxGeometry x="120" y="1060" width="100" height="60" as="geometry" />
        </mxCell>
        <mxCell id="xwYrb8Y9w_a-tpGAEw4C-6" value="数据加载器" style="strokeWidth=2;html=1;shape=mxgraph.flowchart.direct_data;whiteSpace=wrap;fillColor=#fff2cc;strokeColor=#d6b656;" parent="1" vertex="1">
          <mxGeometry x="310" y="1060" width="100" height="60" as="geometry" />
        </mxCell>
        <mxCell id="xwYrb8Y9w_a-tpGAEw4C-7" value="" style="shape=flexArrow;endArrow=classic;html=1;" parent="1" edge="1">
          <mxGeometry width="50" height="50" relative="1" as="geometry">
            <mxPoint x="230" y="1089.5" as="sourcePoint" />
            <mxPoint x="300" y="1089.5" as="targetPoint" />
          </mxGeometry>
        </mxCell>
        <mxCell id="xwYrb8Y9w_a-tpGAEw4C-8" value="三层神经网络" style="verticalLabelPosition=bottom;verticalAlign=top;html=1;shape=mxgraph.basic.layered_rect;dx=10;outlineConnect=0;fillColor=#d5e8d4;strokeColor=#82b366;" parent="1" vertex="1">
          <mxGeometry x="500" y="1060" width="100" height="60" as="geometry" />
        </mxCell>
        <mxCell id="xwYrb8Y9w_a-tpGAEw4C-9" value="训练模块" style="rounded=1;whiteSpace=wrap;html=1;fillColor=#ffe6cc;strokeColor=#d79b00;" parent="1" vertex="1">
          <mxGeometry x="670" y="970" width="105" height="60" as="geometry" />
        </mxCell>
        <mxCell id="xwYrb8Y9w_a-tpGAEw4C-10" value="预测模块" style="rounded=1;whiteSpace=wrap;html=1;fillColor=#f8cecc;strokeColor=#b85450;" parent="1" vertex="1">
          <mxGeometry x="670" y="1150" width="105" height="60" as="geometry" />
        </mxCell>
        <mxCell id="xwYrb8Y9w_a-tpGAEw4C-12" value="" style="shape=flexArrow;endArrow=classic;html=1;" parent="1" edge="1">
          <mxGeometry width="50" height="50" relative="1" as="geometry">
            <mxPoint x="420" y="1089.5" as="sourcePoint" />
            <mxPoint x="490" y="1089.5" as="targetPoint" />
          </mxGeometry>
        </mxCell>
        <mxCell id="xwYrb8Y9w_a-tpGAEw4C-15" value="" style="shape=flexArrow;endArrow=classic;html=1;" parent="1" edge="1">
          <mxGeometry width="50" height="50" relative="1" as="geometry">
            <mxPoint x="660" y="1030" as="sourcePoint" />
            <mxPoint x="605" y="1070" as="targetPoint" />
          </mxGeometry>
        </mxCell>
        <mxCell id="xwYrb8Y9w_a-tpGAEw4C-16" value="" style="shape=flexArrow;endArrow=classic;html=1;" parent="1" edge="1">
          <mxGeometry width="50" height="50" relative="1" as="geometry">
            <mxPoint x="660" y="1180" as="sourcePoint" />
            <mxPoint x="600" y="1130" as="targetPoint" />
          </mxGeometry>
        </mxCell>
        <mxCell id="xwYrb8Y9w_a-tpGAEw4C-17" value="训练" style="text;html=1;strokeColor=none;fillColor=none;align=center;verticalAlign=middle;whiteSpace=wrap;rounded=0;rotation=-30;" parent="1" vertex="1">
          <mxGeometry x="600" y="1020" width="40" height="20" as="geometry" />
        </mxCell>
        <mxCell id="xwYrb8Y9w_a-tpGAEw4C-18" value="加载使用" style="text;html=1;strokeColor=none;fillColor=none;align=center;verticalAlign=middle;whiteSpace=wrap;rounded=0;rotation=45;" parent="1" vertex="1">
          <mxGeometry x="600" y="1170" width="50" height="20" as="geometry" />
        </mxCell>
        <mxCell id="3f8aghjsoHUJEWLm3xO_-17" value="" style="shape=table;html=1;whiteSpace=wrap;startSize=0;container=1;collapsible=0;childLayout=tableLayout;fillColor=#FF9933;strokeWidth=2;" vertex="1" parent="1">
          <mxGeometry x="200" y="1360" width="40" height="40" as="geometry" />
        </mxCell>
        <mxCell id="3f8aghjsoHUJEWLm3xO_-18" value="" style="shape=partialRectangle;html=1;whiteSpace=wrap;collapsible=0;dropTarget=0;pointerEvents=0;fillColor=none;top=0;left=0;bottom=0;right=0;points=[[0,0.5],[1,0.5]];portConstraint=eastwest;" vertex="1" parent="3f8aghjsoHUJEWLm3xO_-17">
          <mxGeometry width="40" height="40" as="geometry" />
        </mxCell>
        <mxCell id="3f8aghjsoHUJEWLm3xO_-19" value="&lt;font style=&quot;font-size: 20px&quot; color=&quot;#ffffff&quot;&gt;0.6&lt;br&gt;&lt;/font&gt;" style="shape=partialRectangle;html=1;whiteSpace=wrap;connectable=0;overflow=hidden;fillColor=none;top=0;left=0;bottom=0;right=0;" vertex="1" parent="3f8aghjsoHUJEWLm3xO_-18">
          <mxGeometry width="40" height="40" as="geometry" />
        </mxCell>
        <mxCell id="3f8aghjsoHUJEWLm3xO_-23" value="&lt;font style=&quot;font-size: 26px&quot; color=&quot;#ff8000&quot; face=&quot;Times New Roman&quot;&gt;h&lt;sup&gt;s&lt;/sup&gt;&lt;/font&gt;" style="text;html=1;strokeColor=none;fillColor=none;align=center;verticalAlign=middle;whiteSpace=wrap;rounded=0;shadow=0;sketch=0;" vertex="1" parent="1">
          <mxGeometry x="300" y="1320" width="40" height="20" as="geometry" />
        </mxCell>
        <mxCell id="3f8aghjsoHUJEWLm3xO_-34" value="" style="shape=table;html=1;whiteSpace=wrap;startSize=0;container=1;collapsible=0;childLayout=tableLayout;fillColor=#FF9933;strokeWidth=2;" vertex="1" parent="1">
          <mxGeometry x="320" y="1360" width="40" height="40" as="geometry" />
        </mxCell>
        <mxCell id="3f8aghjsoHUJEWLm3xO_-35" value="" style="shape=partialRectangle;html=1;whiteSpace=wrap;collapsible=0;dropTarget=0;pointerEvents=0;fillColor=none;top=0;left=0;bottom=0;right=0;points=[[0,0.5],[1,0.5]];portConstraint=eastwest;" vertex="1" parent="3f8aghjsoHUJEWLm3xO_-34">
          <mxGeometry width="40" height="40" as="geometry" />
        </mxCell>
        <mxCell id="3f8aghjsoHUJEWLm3xO_-36" value="&lt;font style=&quot;font-size: 20px&quot; color=&quot;#ffffff&quot;&gt;...&lt;/font&gt;" style="shape=partialRectangle;html=1;whiteSpace=wrap;connectable=0;overflow=hidden;fillColor=none;top=0;left=0;bottom=0;right=0;" vertex="1" parent="3f8aghjsoHUJEWLm3xO_-35">
          <mxGeometry width="40" height="40" as="geometry" />
        </mxCell>
        <mxCell id="3f8aghjsoHUJEWLm3xO_-40" value="" style="shape=table;html=1;whiteSpace=wrap;startSize=0;container=1;collapsible=0;childLayout=tableLayout;fillColor=#FF9933;strokeWidth=2;" vertex="1" parent="1">
          <mxGeometry x="240" y="1360" width="40" height="40" as="geometry" />
        </mxCell>
        <mxCell id="3f8aghjsoHUJEWLm3xO_-41" value="" style="shape=partialRectangle;html=1;whiteSpace=wrap;collapsible=0;dropTarget=0;pointerEvents=0;fillColor=none;top=0;left=0;bottom=0;right=0;points=[[0,0.5],[1,0.5]];portConstraint=eastwest;" vertex="1" parent="3f8aghjsoHUJEWLm3xO_-40">
          <mxGeometry width="40" height="40" as="geometry" />
        </mxCell>
        <mxCell id="3f8aghjsoHUJEWLm3xO_-42" value="&lt;font style=&quot;font-size: 20px&quot; color=&quot;#ffffff&quot;&gt;0.4&lt;br&gt;&lt;/font&gt;" style="shape=partialRectangle;html=1;whiteSpace=wrap;connectable=0;overflow=hidden;fillColor=none;top=0;left=0;bottom=0;right=0;" vertex="1" parent="3f8aghjsoHUJEWLm3xO_-41">
          <mxGeometry width="40" height="40" as="geometry" />
        </mxCell>
        <mxCell id="3f8aghjsoHUJEWLm3xO_-43" value="" style="shape=table;html=1;whiteSpace=wrap;startSize=0;container=1;collapsible=0;childLayout=tableLayout;fillColor=#FF9933;strokeWidth=2;" vertex="1" parent="1">
          <mxGeometry x="280" y="1360" width="40" height="40" as="geometry" />
        </mxCell>
        <mxCell id="3f8aghjsoHUJEWLm3xO_-44" value="" style="shape=partialRectangle;html=1;whiteSpace=wrap;collapsible=0;dropTarget=0;pointerEvents=0;fillColor=none;top=0;left=0;bottom=0;right=0;points=[[0,0.5],[1,0.5]];portConstraint=eastwest;" vertex="1" parent="3f8aghjsoHUJEWLm3xO_-43">
          <mxGeometry width="40" height="40" as="geometry" />
        </mxCell>
        <mxCell id="3f8aghjsoHUJEWLm3xO_-45" value="&lt;font style=&quot;font-size: 20px&quot; color=&quot;#ffffff&quot;&gt;0.3&lt;br&gt;&lt;/font&gt;" style="shape=partialRectangle;html=1;whiteSpace=wrap;connectable=0;overflow=hidden;fillColor=none;top=0;left=0;bottom=0;right=0;" vertex="1" parent="3f8aghjsoHUJEWLm3xO_-44">
          <mxGeometry width="40" height="40" as="geometry" />
        </mxCell>
        <mxCell id="3f8aghjsoHUJEWLm3xO_-46" value="" style="shape=table;html=1;whiteSpace=wrap;startSize=0;container=1;collapsible=0;childLayout=tableLayout;fillColor=#FF9933;strokeWidth=2;" vertex="1" parent="1">
          <mxGeometry x="360" y="1360" width="40" height="40" as="geometry" />
        </mxCell>
        <mxCell id="3f8aghjsoHUJEWLm3xO_-47" value="" style="shape=partialRectangle;html=1;whiteSpace=wrap;collapsible=0;dropTarget=0;pointerEvents=0;fillColor=none;top=0;left=0;bottom=0;right=0;points=[[0,0.5],[1,0.5]];portConstraint=eastwest;" vertex="1" parent="3f8aghjsoHUJEWLm3xO_-46">
          <mxGeometry width="40" height="40" as="geometry" />
        </mxCell>
        <mxCell id="3f8aghjsoHUJEWLm3xO_-48" value="&lt;font style=&quot;font-size: 20px&quot; color=&quot;#ffffff&quot;&gt;0.7&lt;br&gt;&lt;/font&gt;" style="shape=partialRectangle;html=1;whiteSpace=wrap;connectable=0;overflow=hidden;fillColor=none;top=0;left=0;bottom=0;right=0;" vertex="1" parent="3f8aghjsoHUJEWLm3xO_-47">
          <mxGeometry width="40" height="40" as="geometry" />
        </mxCell>
        <mxCell id="3f8aghjsoHUJEWLm3xO_-49" value="" style="shape=table;html=1;whiteSpace=wrap;startSize=0;container=1;collapsible=0;childLayout=tableLayout;fillColor=#FF9933;strokeWidth=2;" vertex="1" parent="1">
          <mxGeometry x="400" y="1360" width="40" height="40" as="geometry" />
        </mxCell>
        <mxCell id="3f8aghjsoHUJEWLm3xO_-50" value="" style="shape=partialRectangle;html=1;whiteSpace=wrap;collapsible=0;dropTarget=0;pointerEvents=0;fillColor=none;top=0;left=0;bottom=0;right=0;points=[[0,0.5],[1,0.5]];portConstraint=eastwest;" vertex="1" parent="3f8aghjsoHUJEWLm3xO_-49">
          <mxGeometry width="40" height="40" as="geometry" />
        </mxCell>
        <mxCell id="3f8aghjsoHUJEWLm3xO_-51" value="&lt;font style=&quot;font-size: 20px&quot; color=&quot;#ffffff&quot;&gt;0.5&lt;br&gt;&lt;/font&gt;" style="shape=partialRectangle;html=1;whiteSpace=wrap;connectable=0;overflow=hidden;fillColor=none;top=0;left=0;bottom=0;right=0;" vertex="1" parent="3f8aghjsoHUJEWLm3xO_-50">
          <mxGeometry width="40" height="40" as="geometry" />
        </mxCell>
        <mxCell id="3f8aghjsoHUJEWLm3xO_-55" value="" style="edgeStyle=orthogonalEdgeStyle;rounded=0;orthogonalLoop=1;jettySize=auto;html=1;entryX=0.5;entryY=0;entryDx=0;entryDy=0;exitX=0.5;exitY=1;exitDx=0;exitDy=0;exitPerimeter=0;" edge="1" parent="1" source="3f8aghjsoHUJEWLm3xO_-52" target="3f8aghjsoHUJEWLm3xO_-56">
          <mxGeometry relative="1" as="geometry">
            <mxPoint x="530" y="1290" as="targetPoint" />
            <Array as="points">
              <mxPoint x="320" y="1510" />
              <mxPoint x="200" y="1510" />
            </Array>
          </mxGeometry>
        </mxCell>
        <mxCell id="3f8aghjsoHUJEWLm3xO_-57" value="&lt;font style=&quot;font-size: 18px&quot; face=&quot;Times New Roman&quot;&gt;right&lt;/font&gt;" style="edgeLabel;html=1;align=center;verticalAlign=middle;resizable=0;points=[];" vertex="1" connectable="0" parent="3f8aghjsoHUJEWLm3xO_-55">
          <mxGeometry x="0.0222" y="1" relative="1" as="geometry">
            <mxPoint as="offset" />
          </mxGeometry>
        </mxCell>
        <mxCell id="3f8aghjsoHUJEWLm3xO_-52" value="&lt;font style=&quot;font-size: 18px&quot; face=&quot;Times New Roman&quot;&gt;exercise answer&lt;/font&gt;" style="strokeWidth=2;html=1;shape=mxgraph.flowchart.decision;whiteSpace=wrap;shadow=0;sketch=0;fillColor=#FFFFFF;gradientColor=none;" vertex="1" parent="1">
          <mxGeometry x="230" y="1440" width="180" height="50" as="geometry" />
        </mxCell>
        <mxCell id="3f8aghjsoHUJEWLm3xO_-56" value="&lt;font style=&quot;font-size: 18px&quot; face=&quot;Times New Roman&quot;&gt;upper&lt;/font&gt;" style="rounded=1;whiteSpace=wrap;html=1;absoluteArcSize=1;arcSize=14;strokeWidth=2;shadow=0;sketch=0;fillColor=#FFFFFF;gradientColor=none;" vertex="1" parent="1">
          <mxGeometry x="150" y="1560" width="100" height="40" as="geometry" />
        </mxCell>
        <mxCell id="3f8aghjsoHUJEWLm3xO_-58" value="" style="edgeStyle=orthogonalEdgeStyle;rounded=0;orthogonalLoop=1;jettySize=auto;html=1;entryX=0.5;entryY=0;entryDx=0;entryDy=0;exitX=0.5;exitY=1;exitDx=0;exitDy=0;exitPerimeter=0;entryPerimeter=0;" edge="1" parent="1" target="3f8aghjsoHUJEWLm3xO_-52">
          <mxGeometry relative="1" as="geometry">
            <mxPoint x="320" y="1400" as="sourcePoint" />
            <mxPoint x="200" y="1470" as="targetPoint" />
            <Array as="points">
              <mxPoint x="320" y="1430" />
              <mxPoint x="320" y="1430" />
            </Array>
          </mxGeometry>
        </mxCell>
        <mxCell id="3f8aghjsoHUJEWLm3xO_-60" value="&lt;font style=&quot;font-size: 18px&quot; face=&quot;Times New Roman&quot;&gt;lower&lt;/font&gt;" style="rounded=1;whiteSpace=wrap;html=1;absoluteArcSize=1;arcSize=14;strokeWidth=2;shadow=0;sketch=0;fillColor=#FFFFFF;gradientColor=none;" vertex="1" parent="1">
          <mxGeometry x="395" y="1560" width="100" height="40" as="geometry" />
        </mxCell>
        <mxCell id="3f8aghjsoHUJEWLm3xO_-61" value="" style="edgeStyle=orthogonalEdgeStyle;rounded=0;orthogonalLoop=1;jettySize=auto;html=1;exitX=0.5;exitY=1;exitDx=0;exitDy=0;exitPerimeter=0;" edge="1" parent="1" source="3f8aghjsoHUJEWLm3xO_-52">
          <mxGeometry relative="1" as="geometry">
            <mxPoint x="540" y="1490" as="sourcePoint" />
            <mxPoint x="440" y="1560" as="targetPoint" />
            <Array as="points">
              <mxPoint x="320" y="1510" />
              <mxPoint x="440" y="1510" />
              <mxPoint x="440" y="1560" />
            </Array>
          </mxGeometry>
        </mxCell>
        <mxCell id="3f8aghjsoHUJEWLm3xO_-62" value="&lt;font style=&quot;font-size: 18px&quot; face=&quot;Times New Roman&quot;&gt;error&lt;/font&gt;" style="edgeLabel;html=1;align=center;verticalAlign=middle;resizable=0;points=[];" vertex="1" connectable="0" parent="3f8aghjsoHUJEWLm3xO_-61">
          <mxGeometry x="0.0222" y="1" relative="1" as="geometry">
            <mxPoint as="offset" />
          </mxGeometry>
        </mxCell>
        <mxCell id="3f8aghjsoHUJEWLm3xO_-63" value="" style="shape=table;html=1;whiteSpace=wrap;startSize=0;container=1;collapsible=0;childLayout=tableLayout;fillColor=#FF9933;strokeWidth=2;" vertex="1" parent="1">
          <mxGeometry x="50" y="1650" width="40" height="40" as="geometry" />
        </mxCell>
        <mxCell id="3f8aghjsoHUJEWLm3xO_-64" value="" style="shape=partialRectangle;html=1;whiteSpace=wrap;collapsible=0;dropTarget=0;pointerEvents=0;fillColor=none;top=0;left=0;bottom=0;right=0;points=[[0,0.5],[1,0.5]];portConstraint=eastwest;" vertex="1" parent="3f8aghjsoHUJEWLm3xO_-63">
          <mxGeometry width="40" height="40" as="geometry" />
        </mxCell>
        <mxCell id="3f8aghjsoHUJEWLm3xO_-65" value="&lt;font style=&quot;font-size: 20px&quot; color=&quot;#ffffff&quot;&gt;0.6&lt;br&gt;&lt;/font&gt;" style="shape=partialRectangle;html=1;whiteSpace=wrap;connectable=0;overflow=hidden;fillColor=none;top=0;left=0;bottom=0;right=0;" vertex="1" parent="3f8aghjsoHUJEWLm3xO_-64">
          <mxGeometry width="40" height="40" as="geometry" />
        </mxCell>
        <mxCell id="3f8aghjsoHUJEWLm3xO_-66" value="" style="shape=table;html=1;whiteSpace=wrap;startSize=0;container=1;collapsible=0;childLayout=tableLayout;fillColor=#FF9933;strokeWidth=2;" vertex="1" parent="1">
          <mxGeometry x="170" y="1650" width="40" height="40" as="geometry" />
        </mxCell>
        <mxCell id="3f8aghjsoHUJEWLm3xO_-67" value="" style="shape=partialRectangle;html=1;whiteSpace=wrap;collapsible=0;dropTarget=0;pointerEvents=0;fillColor=none;top=0;left=0;bottom=0;right=0;points=[[0,0.5],[1,0.5]];portConstraint=eastwest;" vertex="1" parent="3f8aghjsoHUJEWLm3xO_-66">
          <mxGeometry width="40" height="40" as="geometry" />
        </mxCell>
        <mxCell id="3f8aghjsoHUJEWLm3xO_-68" value="&lt;font style=&quot;font-size: 20px&quot; color=&quot;#ffffff&quot;&gt;...&lt;/font&gt;" style="shape=partialRectangle;html=1;whiteSpace=wrap;connectable=0;overflow=hidden;fillColor=none;top=0;left=0;bottom=0;right=0;" vertex="1" parent="3f8aghjsoHUJEWLm3xO_-67">
          <mxGeometry width="40" height="40" as="geometry" />
        </mxCell>
        <mxCell id="3f8aghjsoHUJEWLm3xO_-69" value="" style="shape=table;html=1;whiteSpace=wrap;startSize=0;container=1;collapsible=0;childLayout=tableLayout;fillColor=#FF9933;strokeWidth=2;" vertex="1" parent="1">
          <mxGeometry x="90" y="1650" width="40" height="40" as="geometry" />
        </mxCell>
        <mxCell id="3f8aghjsoHUJEWLm3xO_-70" value="" style="shape=partialRectangle;html=1;whiteSpace=wrap;collapsible=0;dropTarget=0;pointerEvents=0;fillColor=none;top=0;left=0;bottom=0;right=0;points=[[0,0.5],[1,0.5]];portConstraint=eastwest;" vertex="1" parent="3f8aghjsoHUJEWLm3xO_-69">
          <mxGeometry width="40" height="40" as="geometry" />
        </mxCell>
        <mxCell id="3f8aghjsoHUJEWLm3xO_-71" value="&lt;font style=&quot;font-size: 20px&quot; color=&quot;#ffffff&quot;&gt;0.4&lt;br&gt;&lt;/font&gt;" style="shape=partialRectangle;html=1;whiteSpace=wrap;connectable=0;overflow=hidden;fillColor=none;top=0;left=0;bottom=0;right=0;" vertex="1" parent="3f8aghjsoHUJEWLm3xO_-70">
          <mxGeometry width="40" height="40" as="geometry" />
        </mxCell>
        <mxCell id="3f8aghjsoHUJEWLm3xO_-72" value="" style="shape=table;html=1;whiteSpace=wrap;startSize=0;container=1;collapsible=0;childLayout=tableLayout;strokeWidth=2;fillColor=#00CC00;" vertex="1" parent="1">
          <mxGeometry x="130" y="1650" width="40" height="40" as="geometry" />
        </mxCell>
        <mxCell id="3f8aghjsoHUJEWLm3xO_-73" value="" style="shape=partialRectangle;html=1;whiteSpace=wrap;collapsible=0;dropTarget=0;pointerEvents=0;fillColor=none;top=0;left=0;bottom=0;right=0;points=[[0,0.5],[1,0.5]];portConstraint=eastwest;" vertex="1" parent="3f8aghjsoHUJEWLm3xO_-72">
          <mxGeometry width="40" height="40" as="geometry" />
        </mxCell>
        <mxCell id="3f8aghjsoHUJEWLm3xO_-74" value="&lt;font style=&quot;font-size: 20px&quot; color=&quot;#ffffff&quot;&gt;0.4&lt;br&gt;&lt;/font&gt;" style="shape=partialRectangle;html=1;whiteSpace=wrap;connectable=0;overflow=hidden;fillColor=none;top=0;left=0;bottom=0;right=0;" vertex="1" parent="3f8aghjsoHUJEWLm3xO_-73">
          <mxGeometry width="40" height="40" as="geometry" />
        </mxCell>
        <mxCell id="3f8aghjsoHUJEWLm3xO_-75" value="" style="shape=table;html=1;whiteSpace=wrap;startSize=0;container=1;collapsible=0;childLayout=tableLayout;strokeWidth=2;fillColor=#00CC00;" vertex="1" parent="1">
          <mxGeometry x="210" y="1650" width="40" height="40" as="geometry" />
        </mxCell>
        <mxCell id="3f8aghjsoHUJEWLm3xO_-76" value="" style="shape=partialRectangle;html=1;whiteSpace=wrap;collapsible=0;dropTarget=0;pointerEvents=0;fillColor=none;top=0;left=0;bottom=0;right=0;points=[[0,0.5],[1,0.5]];portConstraint=eastwest;" vertex="1" parent="3f8aghjsoHUJEWLm3xO_-75">
          <mxGeometry width="40" height="40" as="geometry" />
        </mxCell>
        <mxCell id="3f8aghjsoHUJEWLm3xO_-77" value="&lt;font style=&quot;font-size: 20px&quot; color=&quot;#ffffff&quot;&gt;0.8&lt;br&gt;&lt;/font&gt;" style="shape=partialRectangle;html=1;whiteSpace=wrap;connectable=0;overflow=hidden;fillColor=none;top=0;left=0;bottom=0;right=0;" vertex="1" parent="3f8aghjsoHUJEWLm3xO_-76">
          <mxGeometry width="40" height="40" as="geometry" />
        </mxCell>
        <mxCell id="3f8aghjsoHUJEWLm3xO_-78" value="" style="shape=table;html=1;whiteSpace=wrap;startSize=0;container=1;collapsible=0;childLayout=tableLayout;fillColor=#FF9933;strokeWidth=2;" vertex="1" parent="1">
          <mxGeometry x="250" y="1650" width="40" height="40" as="geometry" />
        </mxCell>
        <mxCell id="3f8aghjsoHUJEWLm3xO_-79" value="" style="shape=partialRectangle;html=1;whiteSpace=wrap;collapsible=0;dropTarget=0;pointerEvents=0;fillColor=none;top=0;left=0;bottom=0;right=0;points=[[0,0.5],[1,0.5]];portConstraint=eastwest;" vertex="1" parent="3f8aghjsoHUJEWLm3xO_-78">
          <mxGeometry width="40" height="40" as="geometry" />
        </mxCell>
        <mxCell id="3f8aghjsoHUJEWLm3xO_-80" value="&lt;font style=&quot;font-size: 20px&quot; color=&quot;#ffffff&quot;&gt;0.5&lt;br&gt;&lt;/font&gt;" style="shape=partialRectangle;html=1;whiteSpace=wrap;connectable=0;overflow=hidden;fillColor=none;top=0;left=0;bottom=0;right=0;" vertex="1" parent="3f8aghjsoHUJEWLm3xO_-79">
          <mxGeometry width="40" height="40" as="geometry" />
        </mxCell>
        <mxCell id="3f8aghjsoHUJEWLm3xO_-81" value="" style="shape=table;html=1;whiteSpace=wrap;startSize=0;container=1;collapsible=0;childLayout=tableLayout;fillColor=#FF9933;strokeWidth=2;" vertex="1" parent="1">
          <mxGeometry x="360" y="1650" width="40" height="40" as="geometry" />
        </mxCell>
        <mxCell id="3f8aghjsoHUJEWLm3xO_-82" value="" style="shape=partialRectangle;html=1;whiteSpace=wrap;collapsible=0;dropTarget=0;pointerEvents=0;fillColor=none;top=0;left=0;bottom=0;right=0;points=[[0,0.5],[1,0.5]];portConstraint=eastwest;" vertex="1" parent="3f8aghjsoHUJEWLm3xO_-81">
          <mxGeometry width="40" height="40" as="geometry" />
        </mxCell>
        <mxCell id="3f8aghjsoHUJEWLm3xO_-83" value="&lt;font style=&quot;font-size: 20px&quot; color=&quot;#ffffff&quot;&gt;0.6&lt;br&gt;&lt;/font&gt;" style="shape=partialRectangle;html=1;whiteSpace=wrap;connectable=0;overflow=hidden;fillColor=none;top=0;left=0;bottom=0;right=0;" vertex="1" parent="3f8aghjsoHUJEWLm3xO_-82">
          <mxGeometry width="40" height="40" as="geometry" />
        </mxCell>
        <mxCell id="3f8aghjsoHUJEWLm3xO_-84" value="" style="shape=table;html=1;whiteSpace=wrap;startSize=0;container=1;collapsible=0;childLayout=tableLayout;fillColor=#FF9933;strokeWidth=2;" vertex="1" parent="1">
          <mxGeometry x="480" y="1650" width="40" height="40" as="geometry" />
        </mxCell>
        <mxCell id="3f8aghjsoHUJEWLm3xO_-85" value="" style="shape=partialRectangle;html=1;whiteSpace=wrap;collapsible=0;dropTarget=0;pointerEvents=0;fillColor=none;top=0;left=0;bottom=0;right=0;points=[[0,0.5],[1,0.5]];portConstraint=eastwest;" vertex="1" parent="3f8aghjsoHUJEWLm3xO_-84">
          <mxGeometry width="40" height="40" as="geometry" />
        </mxCell>
        <mxCell id="3f8aghjsoHUJEWLm3xO_-86" value="&lt;font style=&quot;font-size: 20px&quot; color=&quot;#ffffff&quot;&gt;...&lt;/font&gt;" style="shape=partialRectangle;html=1;whiteSpace=wrap;connectable=0;overflow=hidden;fillColor=none;top=0;left=0;bottom=0;right=0;" vertex="1" parent="3f8aghjsoHUJEWLm3xO_-85">
          <mxGeometry width="40" height="40" as="geometry" />
        </mxCell>
        <mxCell id="3f8aghjsoHUJEWLm3xO_-87" value="" style="shape=table;html=1;whiteSpace=wrap;startSize=0;container=1;collapsible=0;childLayout=tableLayout;fillColor=#FF9933;strokeWidth=2;" vertex="1" parent="1">
          <mxGeometry x="400" y="1650" width="40" height="40" as="geometry" />
        </mxCell>
        <mxCell id="3f8aghjsoHUJEWLm3xO_-88" value="" style="shape=partialRectangle;html=1;whiteSpace=wrap;collapsible=0;dropTarget=0;pointerEvents=0;fillColor=none;top=0;left=0;bottom=0;right=0;points=[[0,0.5],[1,0.5]];portConstraint=eastwest;" vertex="1" parent="3f8aghjsoHUJEWLm3xO_-87">
          <mxGeometry width="40" height="40" as="geometry" />
        </mxCell>
        <mxCell id="3f8aghjsoHUJEWLm3xO_-89" value="&lt;font style=&quot;font-size: 20px&quot; color=&quot;#ffffff&quot;&gt;0.4&lt;br&gt;&lt;/font&gt;" style="shape=partialRectangle;html=1;whiteSpace=wrap;connectable=0;overflow=hidden;fillColor=none;top=0;left=0;bottom=0;right=0;" vertex="1" parent="3f8aghjsoHUJEWLm3xO_-88">
          <mxGeometry width="40" height="40" as="geometry" />
        </mxCell>
        <mxCell id="3f8aghjsoHUJEWLm3xO_-90" value="" style="shape=table;html=1;whiteSpace=wrap;startSize=0;container=1;collapsible=0;childLayout=tableLayout;strokeWidth=2;fillColor=#FF0000;" vertex="1" parent="1">
          <mxGeometry x="440" y="1650" width="40" height="40" as="geometry" />
        </mxCell>
        <mxCell id="3f8aghjsoHUJEWLm3xO_-91" value="" style="shape=partialRectangle;html=1;whiteSpace=wrap;collapsible=0;dropTarget=0;pointerEvents=0;fillColor=none;top=0;left=0;bottom=0;right=0;points=[[0,0.5],[1,0.5]];portConstraint=eastwest;" vertex="1" parent="3f8aghjsoHUJEWLm3xO_-90">
          <mxGeometry width="40" height="40" as="geometry" />
        </mxCell>
        <mxCell id="3f8aghjsoHUJEWLm3xO_-92" value="&lt;font style=&quot;font-size: 20px&quot; color=&quot;#ffffff&quot;&gt;0.2&lt;br&gt;&lt;/font&gt;" style="shape=partialRectangle;html=1;whiteSpace=wrap;connectable=0;overflow=hidden;fillColor=none;top=0;left=0;bottom=0;right=0;" vertex="1" parent="3f8aghjsoHUJEWLm3xO_-91">
          <mxGeometry width="40" height="40" as="geometry" />
        </mxCell>
        <mxCell id="3f8aghjsoHUJEWLm3xO_-93" value="" style="shape=table;html=1;whiteSpace=wrap;startSize=0;container=1;collapsible=0;childLayout=tableLayout;strokeWidth=2;fillColor=#FF0000;" vertex="1" parent="1">
          <mxGeometry x="520" y="1650" width="40" height="40" as="geometry" />
        </mxCell>
        <mxCell id="3f8aghjsoHUJEWLm3xO_-94" value="" style="shape=partialRectangle;html=1;whiteSpace=wrap;collapsible=0;dropTarget=0;pointerEvents=0;fillColor=none;top=0;left=0;bottom=0;right=0;points=[[0,0.5],[1,0.5]];portConstraint=eastwest;" vertex="1" parent="3f8aghjsoHUJEWLm3xO_-93">
          <mxGeometry width="40" height="40" as="geometry" />
        </mxCell>
        <mxCell id="3f8aghjsoHUJEWLm3xO_-95" value="&lt;font style=&quot;font-size: 20px&quot; color=&quot;#ffffff&quot;&gt;0.6&lt;br&gt;&lt;/font&gt;" style="shape=partialRectangle;html=1;whiteSpace=wrap;connectable=0;overflow=hidden;fillColor=none;top=0;left=0;bottom=0;right=0;" vertex="1" parent="3f8aghjsoHUJEWLm3xO_-94">
          <mxGeometry width="40" height="40" as="geometry" />
        </mxCell>
        <mxCell id="3f8aghjsoHUJEWLm3xO_-96" value="" style="shape=table;html=1;whiteSpace=wrap;startSize=0;container=1;collapsible=0;childLayout=tableLayout;fillColor=#FF9933;strokeWidth=2;" vertex="1" parent="1">
          <mxGeometry x="560" y="1650" width="40" height="40" as="geometry" />
        </mxCell>
        <mxCell id="3f8aghjsoHUJEWLm3xO_-97" value="" style="shape=partialRectangle;html=1;whiteSpace=wrap;collapsible=0;dropTarget=0;pointerEvents=0;fillColor=none;top=0;left=0;bottom=0;right=0;points=[[0,0.5],[1,0.5]];portConstraint=eastwest;" vertex="1" parent="3f8aghjsoHUJEWLm3xO_-96">
          <mxGeometry width="40" height="40" as="geometry" />
        </mxCell>
        <mxCell id="3f8aghjsoHUJEWLm3xO_-98" value="&lt;font style=&quot;font-size: 20px&quot; color=&quot;#ffffff&quot;&gt;0.5&lt;br&gt;&lt;/font&gt;" style="shape=partialRectangle;html=1;whiteSpace=wrap;connectable=0;overflow=hidden;fillColor=none;top=0;left=0;bottom=0;right=0;" vertex="1" parent="3f8aghjsoHUJEWLm3xO_-97">
          <mxGeometry width="40" height="40" as="geometry" />
        </mxCell>
        <mxCell id="3f8aghjsoHUJEWLm3xO_-99" value="" style="edgeStyle=orthogonalEdgeStyle;rounded=0;orthogonalLoop=1;jettySize=auto;html=1;exitX=0.5;exitY=1;exitDx=0;exitDy=0;exitPerimeter=0;" edge="1" parent="1">
          <mxGeometry relative="1" as="geometry">
            <mxPoint x="200" y="1600" as="sourcePoint" />
            <mxPoint x="200" y="1650" as="targetPoint" />
            <Array as="points">
              <mxPoint x="200" y="1630" />
              <mxPoint x="200" y="1630" />
            </Array>
          </mxGeometry>
        </mxCell>
        <mxCell id="3f8aghjsoHUJEWLm3xO_-100" value="" style="edgeStyle=orthogonalEdgeStyle;rounded=0;orthogonalLoop=1;jettySize=auto;html=1;exitX=0.5;exitY=1;exitDx=0;exitDy=0;exitPerimeter=0;" edge="1" parent="1">
          <mxGeometry relative="1" as="geometry">
            <mxPoint x="444.5" y="1600" as="sourcePoint" />
            <mxPoint x="444.5" y="1650" as="targetPoint" />
            <Array as="points">
              <mxPoint x="444.5" y="1630" />
              <mxPoint x="444.5" y="1630" />
            </Array>
          </mxGeometry>
        </mxCell>
        <mxCell id="3f8aghjsoHUJEWLm3xO_-101" value="&lt;font style=&quot;font-size: 26px&quot; color=&quot;#ff8000&quot; face=&quot;Times New Roman&quot;&gt;h&lt;sup&gt;s&lt;/sup&gt;&lt;/font&gt;" style="text;html=1;strokeColor=none;fillColor=none;align=center;verticalAlign=middle;whiteSpace=wrap;rounded=0;shadow=0;sketch=0;" vertex="1" parent="1">
          <mxGeometry x="150" y="1710" width="40" height="20" as="geometry" />
        </mxCell>
        <mxCell id="3f8aghjsoHUJEWLm3xO_-102" value="&lt;font style=&quot;font-size: 26px&quot; color=&quot;#ff8000&quot; face=&quot;Times New Roman&quot;&gt;h&lt;sup&gt;s&lt;/sup&gt;&lt;/font&gt;" style="text;html=1;strokeColor=none;fillColor=none;align=center;verticalAlign=middle;whiteSpace=wrap;rounded=0;shadow=0;sketch=0;" vertex="1" parent="1">
          <mxGeometry x="460" y="1710" width="40" height="20" as="geometry" />
        </mxCell>
      </root>
    </mxGraphModel>
  </diagram>
</mxfile>
